<?xml version="1.0" encoding="UTF-8"?>
<svg width="74px" height="24px" viewBox="0 0 74 24" version="1.1" xmlns="http://www.w3.org/2000/svg" xmlns:xlink="http://www.w3.org/1999/xlink">
    <title>昇思中文LOGO</title>
    <defs>
        <linearGradient x1="0%" y1="38.2725423%" x2="94.0076601%" y2="62.4409903%" id="linearGradient-1">
            <stop stop-color="#8FF4FF" offset="0%"></stop>
            <stop stop-color="#73B3FF" offset="51.7598932%"></stop>
            <stop stop-color="#5F81FF" offset="100%"></stop>
        </linearGradient>
        <linearGradient x1="44.6623097%" y1="15.5600344%" x2="55.3376903%" y2="94.5338007%" id="linearGradient-2">
            <stop stop-color="#5ABFE2" offset="0%"></stop>
            <stop stop-color="#56B0E4" offset="100%"></stop>
        </linearGradient>
        <linearGradient x1="50%" y1="0%" x2="50%" y2="100%" id="linearGradient-3">
            <stop stop-color="#56A8E6" offset="0%"></stop>
            <stop stop-color="#509AE6" offset="100%"></stop>
        </linearGradient>
    </defs>
    <g id="页面-1" stroke="none" stroke-width="1" fill="none" fill-rule="evenodd">
        <g id="首页-快速了解-hover" transform="translate(-168.000000, -3341.000000)">
            <g id="昇思中文LOGO" transform="translate(168.000000, 3341.000000)">
                <g id="编组-130" transform="translate(45.809524, 2.117647)" fill="#000000">
                    <path d="M3.60801067,16.936002 L3.06964258,16.936002 C3.06278079,16.936002 3.056363,16.9394688 3.05252847,16.945288 L1.81671983,18.8111293 L0.571183592,16.9452055 C0.567349062,16.9394688 0.560931269,16.936002 0.554109841,16.936002 L0.0206661013,16.936002 C0.00924323671,16.936002 0,16.9454531 0,16.9571329 L0,20.6352038 C0,20.6468837 0.00924323671,20.6563348 0.0206661013,20.6563348 L0.461112385,20.6563348 C0.47253525,20.6563348 0.481778486,20.6468837 0.481778486,20.6352038 L0.481778486,17.673688 L1.75100809,19.4914892 C1.75488298,19.4970609 1.76113932,19.5003626 1.76783966,19.5003626 L1.86083711,19.5003626 C1.86749709,19.5003626 1.87375343,19.4970609 1.87762832,19.4915305 L3.14197394,17.6835931 L3.14197394,20.6352038 C3.14197394,20.6468837 3.15121718,20.6563348 3.16264004,20.6563348 L3.60801067,20.6563348 C3.61943353,20.6563348 3.62867677,20.6468837 3.62867677,20.6352038 L3.62867677,16.9571329 C3.62867677,16.9454531 3.61943353,16.936002 3.60801067,16.936002" id="Fill-1"></path>
                    <path d="M4.91426165,16.9460351 C4.76996221,16.9460351 4.61464355,17.0403403 4.61464355,17.2473992 C4.61464355,17.4555724 4.7651186,17.5487634 4.91426165,17.5487634 C5.05856109,17.5487634 5.21387976,17.4559852 5.21387976,17.2523931 C5.21387976,17.0512773 5.06316253,16.9460351 4.91426165,16.9460351" id="Fill-3"></path>
                    <path d="M5.1198046,18.0068972 L4.6989346,18.0068972 C4.68751173,18.0068972 4.6782685,18.0163484 4.6782685,18.0280282 L4.6782685,20.6351873 C4.6782685,20.6468671 4.68751173,20.6563183 4.6989346,20.6563183 L5.1198046,20.6563183 C5.13122746,20.6563183 5.1404707,20.6468671 5.1404707,20.6351873 L5.1404707,18.0280282 C5.1404707,18.0163484 5.13122746,18.0068972 5.1198046,18.0068972" id="Fill-5"></path>
                    <path d="M7.43452903,17.9618577 C7.07981478,17.9618577 6.80623111,18.101025 6.60005446,18.3868298 L6.57910582,18.0317302 C6.57846,18.0205869 6.56941858,18.0118787 6.55848008,18.0118787 L6.17676266,18.0118787 C6.16533979,18.0118787 6.15609656,18.0213298 6.15609656,18.0330096 L6.15609656,20.6351749 C6.15609656,20.6468548 6.16533979,20.6563472 6.17676266,20.6563472 L6.59274867,20.6563472 C6.60417154,20.6563472 6.61341478,20.6468548 6.61341478,20.6351749 L6.61341478,19.244038 C6.61341478,18.7575713 6.9258281,18.404494 7.35622388,18.404494 C7.82294679,18.404494 8.06964837,18.6809302 8.06964837,19.2040047 L8.06964837,20.6351749 C8.06964837,20.6468548 8.07889161,20.6563472 8.09031448,20.6563472 L8.51122483,20.6563472 C8.5226477,20.6563472 8.53189094,20.6468548 8.53189094,20.6351749 L8.53189094,19.1990108 C8.53189094,18.4359016 8.11138421,17.9618577 7.43452903,17.9618577" id="Fill-7"></path>
                    <path d="M10.6348524,20.2687752 C10.1033461,20.2687752 9.75989328,19.9019132 9.75989328,19.3341005 C9.75989328,18.6919167 10.1969087,18.4045023 10.6299684,18.4045023 C11.142625,18.4045023 11.5146955,18.7933619 11.5146955,19.3291067 C11.5146955,19.873601 11.1446835,20.2687752 10.6348524,20.2687752 M11.9788755,16.9326383 C11.9716908,16.9296255 11.9634567,16.9309462 11.957604,16.9360226 L11.5500539,16.9360226 C11.5386311,16.9360226 11.5293878,16.9454738 11.5293878,16.9571536 L11.5293878,18.4351257 C11.3232516,18.1088748 10.923088,17.9618659 10.6005838,17.9618659 C9.80909636,17.9618659 9.29769108,18.5024394 9.29769108,19.3390944 C9.29769108,20.1788034 9.81103381,20.7213993 10.6055082,20.7213993 C10.9892841,20.7213993 11.3326159,20.5367095 11.5370973,20.2238719 L11.5538481,20.6310973 C11.5543325,20.6424057 11.5634143,20.6513203 11.5745142,20.6513203 L11.9709239,20.6513203 C11.9823872,20.6513203 11.9916304,20.6418692 11.9916304,20.6301893 L11.9916304,16.9521597 C11.9916304,16.9436165 11.986585,16.9359401 11.9788755,16.9326383" id="Fill-9"></path>
                    <path d="M14.3425528,18.5025674 C13.7520755,18.4083859 13.3861402,18.2777618 13.3861402,17.9179159 C13.3861402,17.5277356 13.8508045,17.323607 14.3098584,17.3235657 C14.7541796,17.3290961 15.1264519,17.5031791 15.3056658,17.7892315 C15.3117607,17.7989716 15.3243541,17.8018193 15.3340009,17.7957937 L15.6716818,17.5806043 C15.6811269,17.5745787 15.6842348,17.5620322 15.6787051,17.5521683 C15.3412664,16.9483669 14.7647548,16.8709416 14.3002115,16.8709416 C13.8171414,16.8709416 13.3825075,17.0234809 13.1376626,17.27891 C12.9746749,17.4489897 12.894513,17.6607535 12.899397,17.9079282 C12.899397,18.6664151 13.585011,18.8384345 14.2872952,18.9496611 C14.8995285,19.0455347 15.3072803,19.1927087 15.3072803,19.5993563 C15.3072803,19.7552386 15.2353526,20.2637855 14.3099795,20.2637855 C13.8268286,20.2637855 13.3785922,20.0146297 13.168137,19.6290305 C13.1654327,19.6240779 13.160912,19.620446 13.1555436,19.6189603 C13.1500945,19.6173919 13.1444033,19.6182174 13.1396404,19.6211064 L12.7726153,19.8412896 C12.7634528,19.8467787 12.7598604,19.8584998 12.76426,19.8683637 C13.0104773,20.41682 13.5720947,20.7313911 14.3050955,20.7313911 C15.022516,20.7313911 15.7890992,20.437951 15.7890992,19.6143379 C15.7890992,18.7934486 15.1047767,18.6200259 14.3425528,18.5025674" id="Fill-11"></path>
                    <path d="M17.9753184,18.4295004 C18.4956036,18.4295004 18.8062006,18.7751488 18.8062006,19.3541461 C18.8062006,19.9182856 18.4878135,20.2687628 17.9753184,20.2687628 C17.4820767,20.2687628 17.1101676,19.8755697 17.1101676,19.3541461 C17.1101676,18.8183601 17.474004,18.4295004 17.9753184,18.4295004 M18.0242793,17.9668474 C17.6341663,17.9668474 17.2835287,18.1571088 17.073235,18.4792325 L17.0563227,18.0472442 C17.0558787,18.0358945 17.0467566,18.0269386 17.0356566,18.0269386 L16.6343629,18.0269386 C16.62294,18.0269386 16.6136968,18.0363898 16.6136968,18.0480696 L16.6136968,21.861222 C16.6136968,21.8729018 16.62294,21.8823529 16.6343629,21.8823529 L17.0454649,21.8823529 C17.0568878,21.8823529 17.066131,21.8729018 17.066131,21.861222 L17.066131,20.2427205 C17.2989476,20.5904738 17.6951555,20.716393 17.9997787,20.716393 C18.7704386,20.716393 19.2684432,20.1777593 19.2684432,19.3441584 C19.2684432,18.5231866 18.7802469,17.9825305 18.0242793,17.9668474" id="Fill-13"></path>
                    <path d="M21.2344029,20.2737691 C20.7192438,20.2737691 20.3594842,19.8915128 20.3594842,19.3441295 C20.3594842,18.7879141 20.721262,18.3994259 21.2393273,18.3994259 C21.749118,18.3994259 22.11913,18.7967462 22.11913,19.3441295 C22.11913,19.8915128 21.755334,20.2737691 21.2344029,20.2737691 M21.2344029,17.9618659 C20.4596259,17.9618659 19.8972416,18.5431744 19.8972416,19.3441295 C19.8972416,20.1421544 20.4596259,20.7213993 21.2344029,20.7213993 C22.0120457,20.7213993 22.5764886,20.1421544 22.5764886,19.3441295 C22.5764886,18.5302564 22.0245988,17.9618659 21.2344029,17.9618659" id="Fill-15"></path>
                    <path d="M24.5963255,17.9718907 C24.2512582,17.9718907 23.9950712,18.100864 23.8338191,18.3554677 L23.8094395,18.0314042 C23.8087937,18.0231499 23.8035464,18.0160512 23.7959985,18.0132035 C23.7889349,18.0105208 23.7811044,18.0120066 23.7754535,18.0168766 L23.392404,18.0168766 C23.3809812,18.0168766 23.3717379,18.0263278 23.3717379,18.0380076 L23.3717379,20.6351791 C23.3717379,20.6468589 23.3809812,20.6563101 23.392404,20.6563101 L23.813274,20.6563101 C23.8246969,20.6563101 23.8339401,20.6468589 23.8339401,20.6351791 L23.8339401,19.188986 C23.8339401,18.7518387 24.1381193,18.4345025 24.557173,18.4345025 C24.731301,18.4345025 24.8514227,18.4726786 24.9856313,18.5706983 C24.9904749,18.5742064 24.9966102,18.5755271 25.0023418,18.5740826 C25.0081541,18.5726793 25.0130785,18.5687998 25.0158635,18.5634345 L25.2067424,18.1980996 C25.2115457,18.1888961 25.2090835,18.1775051 25.2008897,18.1712319 C25.0269231,18.0378013 24.8119876,17.9666905 24.5963255,17.9718907" id="Fill-17"></path>
                    <path d="M26.0251523,19.107805 C26.104184,18.6639305 26.4377478,18.3894753 26.9011609,18.3894753 C27.4059062,18.3894753 27.7089552,18.6508887 27.7358777,19.107805 L26.0251523,19.107805 Z M27.8879269,18.3541882 C27.659954,18.0975211 27.3153709,17.9618618 26.891393,17.9618618 C26.1165756,17.9618618 25.5542316,18.5368557 25.5542316,19.3291026 C25.5542316,20.161878 26.0994615,20.7213951 26.9109692,20.7213951 C27.3489937,20.7213951 27.7718819,20.5430199 28.0172515,20.2553579 C28.0236289,20.253707 28.0289973,20.2489608 28.0314191,20.2424399 C28.0344867,20.2342681 28.0323071,20.2249821 28.0259296,20.2191628 L27.7420936,19.958905 C27.7378151,19.9549842 27.7321642,19.9534159 27.726473,19.953581 C27.7207817,19.9540762 27.7155748,19.9569652 27.7120229,19.9615876 C27.5519817,20.1698434 27.1928274,20.2787588 26.9207372,20.2787588 C26.4406944,20.2787588 26.0750012,19.9639814 26.0235782,19.5103668 L28.1589273,19.5103668 C28.1695833,19.5103668 28.1785036,19.5021125 28.1795127,19.4912581 C28.2253656,19.0062772 28.127242,18.6236908 27.8879269,18.3541882 L27.8879269,18.3541882 Z" id="Fill-19"></path>
                    <path d="M15.0576201,14.7501501 L15.0576201,13.314605 C15.1304762,13.314605 15.1951788,13.2979314 15.2752196,13.2158424 C15.6264626,12.8549648 15.7806107,11.8088572 15.7776238,11.1812422 L15.7776238,9.89951588 L17.1815867,9.89951588 L17.1815867,11.17695 C17.1830802,11.3868153 17.1707289,13.3006966 16.2721168,14.2263328 C15.9394007,14.5690509 15.5194994,14.7501501 15.0576201,14.7501501" id="Fill-21"></path>
                    <path d="M25.9282396,2.61446419 L25.9282396,3.65524777 L22.2570197,3.65524777 L22.2570197,1.56963601 L25.9282396,1.56963601 L25.9282396,2.61446419 Z M25.9282396,5.09277385 L25.9282396,6.14404038 L25.9282396,7.17429973 L22.2570197,7.17429973 L22.2570197,5.08864671 L25.9282396,5.08864671 L25.9282396,5.09277385 Z M20.8551558,3.65524777 L17.1838955,3.65524777 L17.1838955,2.61446419 L17.1838955,1.56963601 L20.8551558,1.56963601 L20.8551558,3.65524777 Z M26.0664038,0.136237076 L17.0459735,0.136237076 C16.3491788,0.136237076 15.7820315,0.715853404 15.7820315,1.42832255 L15.7820315,5.08864671 L17.1838955,5.08864671 L18.1777655,5.08864671 L20.8551558,5.08864671 L20.8551558,7.17429973 L17.1838955,7.17429973 L17.1838955,6.3886563 L15.7820315,6.3886563 L15.7820315,7.31528303 C15.7820315,8.02775217 16.3491788,8.6076574 17.0459735,8.6076574 L26.0664038,8.6076574 C26.7631986,8.6076574 27.3301036,8.02775217 27.3301036,7.31528303 L27.3301036,1.42832255 C27.3301036,0.715853404 26.7631986,0.136237076 26.0664038,0.136237076 L26.0664038,0.136237076 Z" id="Fill-23"></path>
                    <path d="M20.1344981,13.3146092 C19.6822253,13.3146092 19.3144333,12.9385437 19.3144333,12.476097 L19.3144333,9.89952 L17.9105108,9.89952 L17.9105108,12.476097 C17.9105108,13.7300476 18.9081345,14.7501542 20.1344981,14.7501542 L24.9823941,14.7501542 L25.5710955,13.3146092 L20.1344981,13.3146092 Z" id="Fill-25"></path>
                    <path d="M28.1904714,14.7630309 L26.7865085,14.7630309 C26.7865085,11.1486832 25.1323324,11.0594955 25.0619385,11.0574732 L25.0491029,9.62246472 C25.1540883,9.62448702 26.0388154,9.62675695 26.8611002,10.4505765 C27.7431633,11.3345698 28.1904714,12.7852615 28.1904714,14.7630309" id="Fill-27"></path>
                    <polygon id="Fill-29" points="22.6484849 12.8749031 20.9545508 9.99650792 22.1574632 9.25651072 23.8513974 12.1349059"></polygon>
                    <path d="M2.64315399,4.31571488 L10.6287454,4.31571488 L10.6287454,3.59111193 L2.64315399,3.59111193 L2.64315399,4.31571488 Z M2.64315399,2.15771299 L10.6287454,2.15771299 L10.6287454,1.43335767 L2.64315399,1.43335767 L2.64315399,2.15771299 Z M2.50515126,5.74919636 L10.7668692,5.74919636 C11.4636236,5.74919636 12.0305287,5.16924986 12.0305287,4.45682199 L12.0305287,1.29208547 C12.0305287,0.579657599 11.4636236,0 10.7668692,0 L2.50515126,0 C1.80839688,0 1.24137073,0.579657599 1.24137073,1.29208547 L1.24137073,4.45682199 C1.24137073,5.16924986 1.80839688,5.74919636 2.50515126,5.74919636 L2.50515126,5.74919636 Z" id="Fill-31"></path>
                    <polygon id="Fill-33" points="9.46650326 12.3940328 9.46650326 12.8320881 9.46650326 14.7630557 10.8682865 14.7630557 10.8682865 12.8320881 10.8682865 12.3940328 10.8682865 10.9607164 10.8682865 10.2996715 10.8682865 9.03082189 9.46650326 9.03082189 9.46650326 10.2996715 9.46650326 10.9607164"></polygon>
                    <polygon id="Fill-34" points="11.4358132 10.4641713 13.5572369 10.4641713 13.5572369 9.03085491 11.4358132 9.03085491"></polygon>
                    <polygon id="Fill-35" points="4.64477892 10.4641713 8.89912998 10.4641713 8.89912998 9.03085491 4.64477892 9.03085491"></polygon>
                    <path d="M5.01431868,7.9525432 C7.22260462,7.77664425 7.94793634,6.80338078 8.02906693,6.68237287 L6.87297616,5.87221419 L6.89004992,5.84786403 C6.88435867,5.85504526 6.30332638,6.54906606 4.31417377,6.54906606 L0.867778473,6.54906606 L0.867778473,7.982465 L3.61237396,7.982465 L3.61237396,8.90962826 L3.61297941,8.93703251 C3.61297941,8.93963261 3.61390777,8.97372283 3.61390777,9.03084253 L4.03634939e-06,9.03084253 L4.03634939e-06,10.4641589 L3.45515821,10.4641589 C3.3248649,11.0524835 3.08926327,11.691118 2.65975549,12.1466311 C2.26742247,12.5625648 1.76247535,12.7648362 1.11597351,12.7648362 L0.415061692,12.7648362 L0.415061692,14.1982764 L1.11597351,14.1982764 C2.15109493,14.1982764 3.0116443,13.8409482 3.67368608,13.1364031 C5.06150359,11.6586787 5.0217052,9.14780583 5.01431868,8.89745318 L5.01431868,7.9525432 Z" id="Fill-36"></path>
                    <polygon id="Fill-37" points="9.4665194 8.45066078 10.8683027 8.45066078 10.8683027 7.14561607 9.4665194 7.14561607"></polygon>
                </g>
                <g id="编组-131">
                    <g id="编组-129" fill="url(#linearGradient-1)">
                        <path d="M39.9475302,0 C38.4481004,0 37.431511,0.834489803 37.431511,2.11230101 L37.431511,2.11230101 C37.431511,3.18145856 38.2956181,3.74211383 39.0326363,4.04200405 L39.0326363,4.04200405 C39.6680402,4.30285236 40.252576,4.45922815 40.252576,4.79828515 L40.252576,4.79828515 C40.252576,5.05905021 40.0746191,5.18941193 39.6171721,5.18941193 L39.6171721,5.18941193 C39.1724219,5.18941193 38.6513696,4.98079988 38.0668337,4.53747847 L38.0668337,4.53747847 L37.1011123,5.91959571 C37.7619096,6.46726476 38.7530651,6.83233584 39.5663447,6.83233584 L39.5663447,6.83233584 C41.3453458,6.83233584 42.2857143,5.89354001 42.2857143,4.66788181 L42.2857143,4.66788181 C42.2857143,3.49441825 41.4216072,2.99890221 40.659155,2.71208146 L40.659155,2.71208146 C40.0237917,2.47737209 39.4646898,2.34701038 39.4646898,2.00803661 L39.4646898,2.00803661 C39.4646898,1.74718831 39.6553029,1.64284067 40.0237917,1.64284067 L40.0237917,1.64284067 C40.4177551,1.64284067 40.8625053,1.85145271 41.3199523,2.19050972 L41.3199523,2.19050972 L42.2857143,0.86058712 C41.7266124,0.43029356 40.9895942,0 39.9475302,0 Z M25.70964,4.37698206 L22.0791084,4.37698206 L22.0776886,4.37698206 L17.6425987,15.9403827 L13.2075089,4.37698206 L9.57555753,4.37698206 L8.18695018,20.139928 L11.8189421,20.139928 L12.5823273,11.4735376 L16.137571,19.8644285 L16.1352183,19.870547 L16.1401671,19.870547 L19.1450304,19.870547 L19.1499792,19.870547 L19.1475859,19.8644285 L22.704006,11.4707905 L23.4676752,20.139928 L27.0996671,20.139928 L25.7110192,4.37698206 L25.70964,4.37698206 Z M0,1.8872897 L0,1.89224278 L0,4.32449606 L0,4.34867875 L0,23.7956335 L0,24 L6.014148,24 L6.014148,21.5224614 L2.41018621,21.5224614 L2.41018621,4.34867875 L6.014148,4.34867875 L6.014148,4.32449606 L6.014148,4.12117008 L6.014148,1.89224278 L6.014148,1.8872897 L0,1.8872897 Z M29.2724287,1.8872897 L29.2724287,1.89224278 L29.2724287,4.12117008 L29.2724287,4.32449606 L29.2724287,4.34867875 L32.876431,4.34867875 L32.876431,21.5224614 L29.2724287,21.5224614 L29.2724287,24 L35.2866173,24 L35.2866173,23.7956335 L35.2866173,4.34867875 L35.2866173,4.32449606 L35.2866173,1.89224278 L35.2866173,1.8872897 L29.2724287,1.8872897 Z" id="形状结合"></path>
                    </g>
                    <polygon id="Fill-46" fill="url(#linearGradient-2)" points="12.5823557 11.4735626 13.2074967 4.37700703 17.6425866 15.9404077 16.1375588 19.8644119"></polygon>
                    <polygon id="Fill-48" fill="url(#linearGradient-3)" points="22.704002 11.4707822 25.7110557 4.37701535 27.099663 20.1399613 23.4677117 20.1399613"></polygon>
                </g>
            </g>
        </g>
    </g>
</svg>